<?xml version="1.0" encoding="UTF-8"?>
<svg xmlns="http://www.w3.org/2000/svg" xmlns:xlink="http://www.w3.org/1999/xlink" width="100px" height="100px" viewBox="0 0 100 100" version="1.1">
<g id="surface1">
<path style=" stroke:none;fill-rule:evenodd;fill:rgb(99.607843%,99.607843%,99.607843%);fill-opacity:1;" d="M 97.007812 87.636719 L 97.007812 100 L 59.125 100 L 59.125 93.621094 L 34.101562 93.621094 L 34.101562 100 L 2.992188 100 L 2.992188 87.636719 L 8.980469 87.636719 L 8.980469 62.511719 L 15.359375 62.511719 L 15.359375 56.132812 L 21.738281 56.132812 L 21.738281 43.769531 L 15.359375 43.769531 L 15.359375 37.390625 L 8.980469 37.390625 L 8.980469 31.109375 L 2.992188 31.109375 L 2.992188 12.363281 L 8.980469 12.363281 L 8.980469 5.984375 L 15.359375 5.984375 L 15.359375 0 L 34.101562 0 L 34.101562 5.984375 L 27.722656 5.984375 L 27.722656 12.363281 L 34.101562 12.363281 L 34.101562 18.351562 L 21.738281 18.351562 L 21.738281 24.730469 L 71.492188 24.730469 L 71.492188 18.351562 L 53.140625 18.351562 L 53.140625 12.363281 L 59.519531 12.363281 L 59.519531 5.984375 L 53.140625 5.984375 L 53.140625 0 L 77.871094 0 L 77.871094 5.984375 L 84.25 5.984375 L 84.25 12.363281 L 90.628906 12.363281 L 90.628906 18.742188 L 97.007812 18.742188 L 97.007812 31.109375 L 90.628906 31.109375 L 90.628906 37.390625 L 84.25 37.390625 L 84.25 44.160156 L 77.871094 44.160156 L 77.871094 56.132812 L 84.25 56.132812 L 84.25 62.511719 L 90.628906 62.511719 L 90.628906 87.636719 Z M 97.007812 87.636719 "/>
<path style=" stroke:none;fill-rule:evenodd;fill:rgb(11.372549%,9.411765%,9.803922%);fill-opacity:1;" d="M 15.359375 0 L 34.101562 0 L 34.101562 5.984375 L 27.722656 5.984375 L 27.722656 12.363281 L 34.101562 12.363281 L 34.101562 18.351562 L 15.359375 18.351562 L 15.359375 24.730469 L 21.738281 24.730469 L 21.738281 31.109375 L 71.492188 31.109375 L 71.492188 24.730469 L 77.871094 24.730469 L 77.871094 18.351562 L 71.492188 18.351562 L 71.492188 12.363281 L 65.503906 12.363281 L 65.503906 5.984375 L 84.25 5.984375 L 84.25 12.363281 L 90.628906 12.363281 L 90.628906 18.742188 L 97.007812 18.742188 L 97.007812 31.109375 L 90.628906 31.109375 L 90.628906 18.742188 L 84.25 18.742188 L 84.25 12.363281 L 77.871094 12.363281 L 77.871094 0 L 53.140625 0 L 53.140625 5.984375 L 59.519531 5.984375 L 59.519531 12.363281 L 53.140625 12.363281 L 53.140625 18.351562 L 71.492188 18.351562 L 71.492188 24.730469 L 21.738281 24.730469 L 21.738281 5.984375 L 8.980469 5.984375 L 8.980469 12.363281 L 2.992188 12.363281 L 2.992188 31.109375 L 8.980469 31.109375 L 8.980469 37.390625 L 15.359375 37.390625 L 15.359375 43.769531 L 21.738281 43.769531 L 21.738281 56.132812 L 15.359375 56.132812 L 15.359375 62.511719 L 9.371094 62.511719 L 9.371094 87.636719 L 2.992188 87.636719 L 2.992188 100 L 34.101562 100 L 34.101562 93.621094 L 59.125 93.621094 L 59.125 100 L 96.613281 100 L 96.613281 87.636719 L 90.628906 87.636719 L 90.628906 93.621094 L 84.25 93.621094 L 84.25 87.636719 L 90.628906 87.636719 L 90.628906 62.511719 L 84.25 62.511719 L 84.25 56.132812 L 77.871094 56.132812 L 77.871094 44.160156 L 84.25 44.160156 L 84.25 37.78125 L 71.492188 37.78125 L 71.492188 56.132812 L 65.113281 56.132812 L 65.113281 62.511719 L 27.722656 62.511719 L 27.722656 37.390625 L 15.359375 37.390625 L 15.359375 31.109375 L 8.980469 31.109375 L 8.980469 12.363281 L 15.359375 12.363281 Z M 77.871094 93.621094 L 65.503906 93.621094 L 65.503906 87.636719 L 77.871094 87.636719 Z M 65.503906 87.636719 L 46.367188 87.636719 L 46.367188 81.257812 L 65.503906 81.257812 Z M 71.492188 81.257812 L 71.492188 75.269531 L 46.367188 75.269531 L 46.367188 68.5 L 71.492188 68.5 L 71.492188 75.269531 L 77.871094 75.269531 L 77.871094 68.5 L 71.492188 68.5 L 71.492188 56.132812 L 77.871094 56.132812 L 77.871094 62.511719 L 84.25 62.511719 L 84.25 81.257812 Z M 9.371094 87.636719 L 15.359375 87.636719 L 15.359375 93.621094 L 9.371094 93.621094 Z M 21.738281 93.621094 L 21.738281 87.636719 L 27.722656 87.636719 L 27.722656 93.621094 Z M 15.359375 81.257812 L 15.359375 62.511719 L 27.722656 62.511719 L 27.722656 68.5 L 21.738281 68.5 L 21.738281 75.269531 L 27.722656 75.269531 L 27.722656 68.5 L 40.480469 68.5 L 40.480469 75.269531 L 21.738281 75.269531 L 21.738281 81.257812 Z M 27.722656 81.257812 L 40.480469 81.257812 L 40.480469 87.636719 L 27.722656 87.636719 Z M 59.125 43.769531 L 53.140625 43.769531 L 53.140625 56.132812 L 59.125 56.132812 Z M 40.480469 43.769531 L 34.496094 43.769531 L 34.496094 56.132812 L 40.480469 56.132812 Z M 27.722656 37.390625 L 34.101562 37.390625 L 34.101562 31.109375 L 27.722656 31.109375 Z M 52.746094 31.109375 L 40.480469 31.109375 L 40.480469 37.390625 L 52.746094 37.390625 Z M 71.492188 37.78125 L 71.492188 31.109375 L 65.113281 31.109375 L 65.113281 37.78125 Z M 90.628906 31.109375 L 84.25 31.109375 L 84.25 37.390625 L 90.628906 37.390625 Z M 90.628906 31.109375 "/>
</g>
</svg>
